%TF.GenerationSoftware,KiCad,Pcbnew,7.0.11+dfsg-1build4*%
%TF.CreationDate,2024-10-29T00:20:35+01:00*%
%TF.ProjectId,4to1Servosiganlforplanes,34746f31-5365-4727-966f-736967616e6c,rev?*%
%TF.SameCoordinates,Original*%
%TF.FileFunction,Legend,Top*%
%TF.FilePolarity,Positive*%
%FSLAX46Y46*%
G04 Gerber Fmt 4.6, Leading zero omitted, Abs format (unit mm)*
G04 Created by KiCad (PCBNEW 7.0.11+dfsg-1build4) date 2024-10-29 00:20:35*
%MOMM*%
%LPD*%
G01*
G04 APERTURE LIST*
%ADD10C,0.150000*%
%ADD11C,0.120000*%
G04 APERTURE END LIST*
D10*
X110950476Y-94644819D02*
X110950476Y-93644819D01*
X110950476Y-93644819D02*
X111283809Y-94359104D01*
X111283809Y-94359104D02*
X111617142Y-93644819D01*
X111617142Y-93644819D02*
X111617142Y-94644819D01*
X112521904Y-93978152D02*
X112521904Y-94644819D01*
X112283809Y-93597200D02*
X112045714Y-94311485D01*
X112045714Y-94311485D02*
X112664761Y-94311485D01*
X110950476Y-84484819D02*
X110950476Y-83484819D01*
X110950476Y-83484819D02*
X111283809Y-84199104D01*
X111283809Y-84199104D02*
X111617142Y-83484819D01*
X111617142Y-83484819D02*
X111617142Y-84484819D01*
X111998095Y-83484819D02*
X112617142Y-83484819D01*
X112617142Y-83484819D02*
X112283809Y-83865771D01*
X112283809Y-83865771D02*
X112426666Y-83865771D01*
X112426666Y-83865771D02*
X112521904Y-83913390D01*
X112521904Y-83913390D02*
X112569523Y-83961009D01*
X112569523Y-83961009D02*
X112617142Y-84056247D01*
X112617142Y-84056247D02*
X112617142Y-84294342D01*
X112617142Y-84294342D02*
X112569523Y-84389580D01*
X112569523Y-84389580D02*
X112521904Y-84437200D01*
X112521904Y-84437200D02*
X112426666Y-84484819D01*
X112426666Y-84484819D02*
X112140952Y-84484819D01*
X112140952Y-84484819D02*
X112045714Y-84437200D01*
X112045714Y-84437200D02*
X111998095Y-84389580D01*
X110950476Y-74324819D02*
X110950476Y-73324819D01*
X110950476Y-73324819D02*
X111283809Y-74039104D01*
X111283809Y-74039104D02*
X111617142Y-73324819D01*
X111617142Y-73324819D02*
X111617142Y-74324819D01*
X112045714Y-73420057D02*
X112093333Y-73372438D01*
X112093333Y-73372438D02*
X112188571Y-73324819D01*
X112188571Y-73324819D02*
X112426666Y-73324819D01*
X112426666Y-73324819D02*
X112521904Y-73372438D01*
X112521904Y-73372438D02*
X112569523Y-73420057D01*
X112569523Y-73420057D02*
X112617142Y-73515295D01*
X112617142Y-73515295D02*
X112617142Y-73610533D01*
X112617142Y-73610533D02*
X112569523Y-73753390D01*
X112569523Y-73753390D02*
X111998095Y-74324819D01*
X111998095Y-74324819D02*
X112617142Y-74324819D01*
X110950476Y-64164819D02*
X110950476Y-63164819D01*
X110950476Y-63164819D02*
X111283809Y-63879104D01*
X111283809Y-63879104D02*
X111617142Y-63164819D01*
X111617142Y-63164819D02*
X111617142Y-64164819D01*
X112617142Y-64164819D02*
X112045714Y-64164819D01*
X112331428Y-64164819D02*
X112331428Y-63164819D01*
X112331428Y-63164819D02*
X112236190Y-63307676D01*
X112236190Y-63307676D02*
X112140952Y-63402914D01*
X112140952Y-63402914D02*
X112045714Y-63450533D01*
X101266666Y-79174819D02*
X101266666Y-79889104D01*
X101266666Y-79889104D02*
X101219047Y-80031961D01*
X101219047Y-80031961D02*
X101123809Y-80127200D01*
X101123809Y-80127200D02*
X100980952Y-80174819D01*
X100980952Y-80174819D02*
X100885714Y-80174819D01*
X102266666Y-80174819D02*
X101695238Y-80174819D01*
X101980952Y-80174819D02*
X101980952Y-79174819D01*
X101980952Y-79174819D02*
X101885714Y-79317676D01*
X101885714Y-79317676D02*
X101790476Y-79412914D01*
X101790476Y-79412914D02*
X101695238Y-79460533D01*
D11*
%TO.C,M4*%
X110430000Y-97790000D02*
X113090000Y-97790000D01*
X110430000Y-95190000D02*
X111760000Y-95190000D01*
X113090000Y-97790000D02*
X113090000Y-102930000D01*
X110430000Y-96520000D02*
X110430000Y-95190000D01*
X110430000Y-97790000D02*
X110430000Y-102930000D01*
X110430000Y-102930000D02*
X113090000Y-102930000D01*
%TO.C,M3*%
X110430000Y-87630000D02*
X113090000Y-87630000D01*
X110430000Y-85030000D02*
X111760000Y-85030000D01*
X113090000Y-87630000D02*
X113090000Y-92770000D01*
X110430000Y-86360000D02*
X110430000Y-85030000D01*
X110430000Y-87630000D02*
X110430000Y-92770000D01*
X110430000Y-92770000D02*
X113090000Y-92770000D01*
%TO.C,M2*%
X110430000Y-77470000D02*
X113090000Y-77470000D01*
X110430000Y-74870000D02*
X111760000Y-74870000D01*
X113090000Y-77470000D02*
X113090000Y-82610000D01*
X110430000Y-76200000D02*
X110430000Y-74870000D01*
X110430000Y-77470000D02*
X110430000Y-82610000D01*
X110430000Y-82610000D02*
X113090000Y-82610000D01*
%TO.C,M1*%
X110430000Y-67310000D02*
X113090000Y-67310000D01*
X110430000Y-64710000D02*
X111760000Y-64710000D01*
X113090000Y-67310000D02*
X113090000Y-72450000D01*
X110430000Y-66040000D02*
X110430000Y-64710000D01*
X110430000Y-67310000D02*
X110430000Y-72450000D01*
X110430000Y-72450000D02*
X113090000Y-72450000D01*
%TO.C,J1*%
X102295000Y-81965000D02*
X102295000Y-84840000D01*
X100905000Y-84840000D02*
X101205507Y-84840000D01*
X102208276Y-81965000D02*
X102295000Y-81965000D01*
X101994493Y-84840000D02*
X102295000Y-84840000D01*
X100905000Y-81965000D02*
X100991724Y-81965000D01*
X100905000Y-81280000D02*
X100905000Y-80595000D01*
X100905000Y-81965000D02*
X100905000Y-84840000D01*
X100905000Y-80595000D02*
X101600000Y-80595000D01*
%TD*%
M02*
